<svg viewBox="0 0 201 22" fill="none" xmlns="http://www.w3.org/2000/svg">
<path d="M129.326 7.06396H131.438L133.582 12.392H133.614L135.534 7.06396H137.534L133.902 16.392C133.763 16.7546 133.608 17.0693 133.438 17.336C133.278 17.6133 133.086 17.8426 132.862 18.024C132.638 18.216 132.371 18.3546 132.062 18.44C131.763 18.536 131.4 18.584 130.974 18.584C130.472 18.584 129.982 18.52 129.502 18.392L129.742 16.664C129.891 16.7173 130.046 16.76 130.206 16.792C130.376 16.8346 130.547 16.856 130.718 16.856C130.952 16.856 131.15 16.8346 131.31 16.792C131.47 16.7493 131.603 16.68 131.71 16.584C131.827 16.4986 131.923 16.3813 131.998 16.232C132.072 16.0933 132.152 15.9226 132.238 15.72L132.606 14.808L129.326 7.06396Z" fill="black"/>
<path d="M123.715 8.69597V7.06397H125.299V4.83997H127.219V7.06397H129.331V8.69597H127.219V12.056C127.219 12.44 127.288 12.744 127.427 12.968C127.576 13.192 127.864 13.304 128.291 13.304C128.462 13.304 128.648 13.288 128.851 13.256C129.054 13.2133 129.214 13.1493 129.331 13.064V14.68C129.128 14.776 128.878 14.84 128.579 14.872C128.291 14.9146 128.035 14.936 127.811 14.936C127.299 14.936 126.878 14.8773 126.547 14.76C126.227 14.6533 125.971 14.488 125.779 14.264C125.598 14.0293 125.47 13.7413 125.395 13.4C125.331 13.0586 125.299 12.664 125.299 12.216V8.69597H123.715Z" fill="black"/>
<path d="M120.951 7.06396H122.871V14.744H120.951V7.06396ZM120.679 4.45596C120.679 4.14662 120.791 3.87995 121.015 3.65596C121.249 3.42129 121.543 3.30396 121.895 3.30396C122.247 3.30396 122.54 3.41596 122.775 3.63996C123.02 3.85329 123.143 4.12529 123.143 4.45596C123.143 4.78662 123.02 5.06395 122.775 5.28796C122.54 5.50129 122.247 5.60795 121.895 5.60795C121.543 5.60795 121.249 5.49596 121.015 5.27196C120.791 5.03729 120.679 4.76529 120.679 4.45596Z" fill="black"/>
<path d="M115.164 7.06395H117.084V8.27995H117.116C117.329 7.83195 117.633 7.48528 118.028 7.23995C118.423 6.99461 118.876 6.87195 119.388 6.87195C119.505 6.87195 119.617 6.88261 119.724 6.90395C119.841 6.92528 119.959 6.95195 120.076 6.98395V8.83995C119.916 8.79728 119.756 8.76528 119.596 8.74395C119.447 8.71195 119.297 8.69595 119.148 8.69595C118.7 8.69595 118.337 8.78128 118.06 8.95195C117.793 9.11195 117.585 9.29861 117.436 9.51195C117.297 9.72528 117.201 9.93862 117.148 10.1519C117.105 10.3653 117.084 10.5253 117.084 10.6319V14.7439H115.164V7.06395Z" fill="black"/>
<path d="M113.449 14.744H111.625V13.512H111.593C111.411 13.896 111.134 14.232 110.761 14.52C110.387 14.7973 109.881 14.936 109.241 14.936C108.729 14.936 108.291 14.856 107.929 14.696C107.577 14.5253 107.289 14.3013 107.065 14.024C106.841 13.736 106.681 13.4106 106.585 13.048C106.489 12.6853 106.441 12.3066 106.441 11.912V7.06396H108.361V10.952C108.361 11.1653 108.371 11.4053 108.393 11.672C108.414 11.928 108.467 12.1733 108.553 12.408C108.649 12.632 108.787 12.824 108.969 12.984C109.161 13.1333 109.427 13.208 109.769 13.208C110.089 13.208 110.355 13.1546 110.569 13.048C110.793 12.9413 110.974 12.7973 111.113 12.616C111.262 12.4346 111.369 12.2266 111.433 11.992C111.497 11.7573 111.529 11.512 111.529 11.256V7.06396H113.449V14.744Z" fill="black"/>
<path d="M104.434 9.36795C104.21 9.13328 103.975 8.94661 103.73 8.80795C103.484 8.66928 103.234 8.59995 102.978 8.59995C102.626 8.59995 102.311 8.66395 102.034 8.79195C101.756 8.91995 101.516 9.09061 101.314 9.30395C101.122 9.51728 100.972 9.76261 100.866 10.0399C100.77 10.3173 100.722 10.6053 100.722 10.9039C100.722 11.2026 100.77 11.4906 100.866 11.7679C100.972 12.0453 101.122 12.2906 101.314 12.5039C101.516 12.7173 101.756 12.8879 102.034 13.0159C102.311 13.1439 102.626 13.2079 102.978 13.2079C103.276 13.2079 103.554 13.1493 103.81 13.0319C104.066 12.9039 104.284 12.7226 104.466 12.4879L105.746 13.8639C105.554 14.0559 105.33 14.2213 105.074 14.3599C104.828 14.4986 104.578 14.6106 104.322 14.6959C104.066 14.7813 103.82 14.8399 103.586 14.8719C103.351 14.9146 103.148 14.9359 102.978 14.9359C102.402 14.9359 101.858 14.8399 101.346 14.6479C100.834 14.4559 100.391 14.1839 100.018 13.8319C99.6444 13.4799 99.3458 13.0586 99.1218 12.5679C98.9084 12.0666 98.8018 11.5119 98.8018 10.9039C98.8018 10.2959 98.9084 9.74661 99.1218 9.25595C99.3458 8.75461 99.6444 8.32795 100.018 7.97595C100.391 7.62395 100.834 7.35195 101.346 7.15995C101.858 6.96795 102.402 6.87195 102.978 6.87195C103.468 6.87195 103.959 6.96795 104.45 7.15995C104.951 7.34128 105.388 7.63461 105.762 8.03995L104.434 9.36795Z" fill="black"/>
<path d="M91.9982 11.5759C92.0622 12.1519 92.2862 12.5999 92.6702 12.9199C93.0542 13.2399 93.5182 13.3999 94.0622 13.3999C94.5422 13.3999 94.9422 13.3039 95.2622 13.1119C95.5929 12.9093 95.8809 12.6586 96.1262 12.3599L97.5022 13.3999C97.0542 13.9546 96.5529 14.3493 95.9982 14.5839C95.4436 14.8186 94.8622 14.9359 94.2542 14.9359C93.6782 14.9359 93.1342 14.8399 92.6222 14.6479C92.1102 14.4559 91.6676 14.1839 91.2942 13.8319C90.9209 13.4799 90.6222 13.0586 90.3982 12.5679C90.1849 12.0666 90.0782 11.5119 90.0782 10.9039C90.0782 10.2959 90.1849 9.74661 90.3982 9.25595C90.6222 8.75461 90.9209 8.32795 91.2942 7.97595C91.6676 7.62395 92.1102 7.35195 92.6222 7.15995C93.1342 6.96795 93.6782 6.87195 94.2542 6.87195C94.7876 6.87195 95.2729 6.96795 95.7102 7.15995C96.1582 7.34128 96.5369 7.60795 96.8462 7.95995C97.1662 8.31195 97.4116 8.74928 97.5822 9.27195C97.7636 9.78395 97.8542 10.3759 97.8542 11.0479V11.5759H91.9982ZM95.9342 10.1359C95.9236 9.57062 95.7476 9.12795 95.4062 8.80795C95.0649 8.47728 94.5902 8.31195 93.9822 8.31195C93.4062 8.31195 92.9476 8.47728 92.6062 8.80795C92.2756 9.13861 92.0729 9.58128 91.9982 10.1359H95.9342Z" fill="black"/>
<path d="M87.4667 5.84793C87.2534 5.5386 86.9654 5.3146 86.6027 5.17593C86.2507 5.0266 85.8774 4.95193 85.4827 4.95193C85.2481 4.95193 85.0187 4.9786 84.7947 5.03193C84.5814 5.08526 84.3841 5.1706 84.2027 5.28793C84.0321 5.40526 83.8934 5.55993 83.7867 5.75193C83.6801 5.93326 83.6267 6.15193 83.6267 6.40793C83.6267 6.79193 83.7601 7.08526 84.0267 7.28793C84.2934 7.4906 84.6241 7.6666 85.0187 7.81593C85.4134 7.96526 85.8454 8.10926 86.3147 8.24793C86.7841 8.3866 87.2161 8.5786 87.6107 8.82393C88.0054 9.06926 88.3361 9.3946 88.6027 9.79993C88.8694 10.2053 89.0027 10.7439 89.0027 11.4159C89.0027 12.0239 88.8907 12.5573 88.6667 13.0159C88.4427 13.4639 88.1387 13.8373 87.7547 14.1359C87.3814 14.4346 86.9441 14.6586 86.4427 14.8079C85.9414 14.9573 85.4134 15.0319 84.8587 15.0319C84.1547 15.0319 83.4774 14.9146 82.8267 14.6799C82.1761 14.4453 81.6161 14.0506 81.1467 13.4959L82.6667 12.0239C82.9121 12.3973 83.2321 12.6906 83.6267 12.9039C84.0321 13.1066 84.4587 13.2079 84.9067 13.2079C85.1414 13.2079 85.3761 13.1759 85.6107 13.1119C85.8454 13.0479 86.0587 12.9519 86.2507 12.8239C86.4427 12.6959 86.5974 12.5359 86.7147 12.3439C86.8321 12.1413 86.8907 11.9119 86.8907 11.6559C86.8907 11.2399 86.7574 10.9199 86.4907 10.6959C86.2241 10.4719 85.8934 10.2853 85.4987 10.1359C85.1041 9.97593 84.6721 9.8266 84.2027 9.68793C83.7334 9.54926 83.3014 9.3626 82.9067 9.12793C82.5121 8.8826 82.1814 8.5626 81.9147 8.16793C81.6481 7.7626 81.5147 7.22393 81.5147 6.55193C81.5147 5.96526 81.6321 5.4586 81.8667 5.03193C82.1121 4.60526 82.4267 4.25326 82.8107 3.97593C83.2054 3.68793 83.6534 3.4746 84.1547 3.33593C84.6561 3.19726 85.1681 3.12793 85.6907 3.12793C86.2881 3.12793 86.8641 3.2186 87.4187 3.39993C87.9841 3.58126 88.4907 3.87993 88.9387 4.29593L87.4667 5.84793Z" fill="black"/>
<path d="M70.395 7.25596C70.4163 7.45863 70.427 7.6613 70.427 7.86397C70.4377 8.05596 70.443 8.2533 70.443 8.45597H70.475C70.5923 8.2533 70.7417 8.06663 70.923 7.89596C71.1043 7.7253 71.307 7.5813 71.531 7.46396C71.755 7.33596 71.9897 7.23996 72.235 7.17596C72.491 7.1013 72.7417 7.06396 72.987 7.06396C73.947 7.06396 74.6563 7.31996 75.115 7.83196C75.5737 8.3333 75.803 9.0533 75.803 9.99196V14.744H74.747V10.6C74.747 9.76797 74.603 9.1333 74.315 8.69596C74.027 8.24796 73.4937 8.02396 72.715 8.02396C72.6617 8.02396 72.5123 8.0453 72.267 8.08797C72.0217 8.13063 71.7603 8.24796 71.483 8.43996C71.2163 8.63196 70.9763 8.91996 70.763 9.30396C70.5497 9.68796 70.443 10.2213 70.443 10.904V14.744H69.387V8.90396C69.387 8.7013 69.3763 8.4453 69.355 8.13597C69.3443 7.82663 69.3283 7.5333 69.307 7.25596H70.395Z" fill="black"/>
<path d="M66.7827 11C66.7827 10.584 66.7133 10.1946 66.5747 9.83196C66.4467 9.4693 66.26 9.15463 66.0147 8.88796C65.7693 8.6213 65.4707 8.4133 65.1187 8.26396C64.7773 8.10396 64.388 8.02396 63.9507 8.02396C63.5133 8.02396 63.1187 8.10396 62.7667 8.26396C62.4253 8.4133 62.132 8.6213 61.8867 8.88796C61.652 9.15463 61.4653 9.4693 61.3267 9.83196C61.1987 10.1946 61.1347 10.584 61.1347 11C61.1347 11.416 61.1987 11.8053 61.3267 12.168C61.4653 12.5306 61.652 12.8453 61.8867 13.112C62.132 13.3786 62.4253 13.592 62.7667 13.752C63.1187 13.9013 63.5133 13.976 63.9507 13.976C64.388 13.976 64.7773 13.9013 65.1187 13.752C65.4707 13.592 65.7693 13.3786 66.0147 13.112C66.26 12.8453 66.4467 12.5306 66.5747 12.168C66.7133 11.8053 66.7827 11.416 66.7827 11ZM67.9347 11C67.9347 11.5653 67.8333 12.088 67.6307 12.568C67.4387 13.048 67.1667 13.464 66.8147 13.816C66.4627 14.168 66.0413 14.4453 65.5507 14.648C65.0707 14.84 64.5373 14.936 63.9507 14.936C63.3747 14.936 62.8413 14.84 62.3507 14.648C61.8707 14.4453 61.4547 14.168 61.1027 13.816C60.7507 13.464 60.4733 13.048 60.2707 12.568C60.0787 12.088 59.9827 11.5653 59.9827 11C59.9827 10.4346 60.0787 9.91197 60.2707 9.43196C60.4733 8.95196 60.7507 8.53596 61.1027 8.18396C61.4547 7.83196 61.8707 7.55996 62.3507 7.36796C62.8413 7.1653 63.3747 7.06396 63.9507 7.06396C64.5373 7.06396 65.0707 7.1653 65.5507 7.36796C66.0413 7.55996 66.4627 7.83196 66.8147 8.18396C67.1667 8.53596 67.4387 8.95196 67.6307 9.43196C67.8333 9.91197 67.9347 10.4346 67.9347 11Z" fill="black"/>
<path d="M58.5228 4.37591C58.5228 4.59991 58.4428 4.78658 58.2828 4.93591C58.1228 5.07458 57.9468 5.14391 57.7548 5.14391C57.5628 5.14391 57.3868 5.07458 57.2268 4.93591C57.0668 4.78658 56.9868 4.59991 56.9868 4.37591C56.9868 4.15191 57.0668 3.97058 57.2268 3.83191C57.3868 3.68258 57.5628 3.60791 57.7548 3.60791C57.9468 3.60791 58.1228 3.68258 58.2828 3.83191C58.4428 3.97058 58.5228 4.15191 58.5228 4.37591ZM58.2828 14.7439H57.2268V7.25591H58.2828V14.7439Z" fill="black"/>
<path d="M56.0103 8.21604H53.8503V12.632C53.8503 12.9094 53.877 13.1387 53.9303 13.32C53.9837 13.4907 54.0583 13.624 54.1543 13.72C54.2503 13.816 54.3623 13.8854 54.4903 13.928C54.629 13.96 54.7783 13.976 54.9383 13.976C55.1197 13.976 55.3063 13.9494 55.4983 13.896C55.6903 13.8427 55.8663 13.7734 56.0263 13.688L56.0743 14.664C55.6797 14.8454 55.205 14.936 54.6503 14.936C54.4477 14.936 54.2343 14.9094 54.0103 14.856C53.797 14.8027 53.5997 14.7014 53.4183 14.552C53.237 14.4027 53.0877 14.2 52.9703 13.944C52.853 13.688 52.7943 13.352 52.7943 12.936V8.21604H51.2103V7.25604H52.7943V5.14404H53.8503V7.25604H56.0103V8.21604Z" fill="black"/>
<path d="M48.5615 11.016C48.2948 11.016 47.9588 11.032 47.5535 11.064C47.1588 11.0853 46.7748 11.1493 46.4015 11.256C46.0388 11.352 45.7242 11.5066 45.4575 11.72C45.2015 11.9333 45.0735 12.2266 45.0735 12.6C45.0735 12.8453 45.1215 13.0586 45.2175 13.24C45.3242 13.4106 45.4628 13.5546 45.6335 13.672C45.8042 13.7786 45.9908 13.8586 46.1935 13.912C46.4068 13.9546 46.6202 13.976 46.8335 13.976C47.2175 13.976 47.5482 13.912 47.8255 13.784C48.1135 13.656 48.3535 13.4853 48.5455 13.272C48.7375 13.048 48.8762 12.792 48.9615 12.504C49.0575 12.2053 49.1055 11.8906 49.1055 11.56V11.016H48.5615ZM49.1055 10.152V9.95996C49.1055 8.6693 48.4655 8.02396 47.1855 8.02396C46.3108 8.02396 45.5482 8.3173 44.8975 8.90396L44.2575 8.15196C44.9615 7.42663 46.0175 7.06396 47.4255 7.06396C47.7882 7.06396 48.1348 7.1173 48.4655 7.22396C48.8068 7.33063 49.1002 7.49597 49.3455 7.71996C49.5908 7.9333 49.7882 8.2053 49.9375 8.53596C50.0868 8.86663 50.1615 9.2613 50.1615 9.71996V13.064C50.1615 13.352 50.1722 13.656 50.1935 13.976C50.2255 14.2853 50.2575 14.5413 50.2895 14.744H49.2655C49.2335 14.5626 49.2068 14.3653 49.1855 14.152C49.1748 13.9386 49.1695 13.7306 49.1695 13.528H49.1375C48.8282 14.0293 48.4602 14.392 48.0335 14.616C47.6175 14.8293 47.1055 14.936 46.4975 14.936C46.1668 14.936 45.8468 14.888 45.5375 14.792C45.2282 14.7066 44.9508 14.5733 44.7055 14.392C44.4708 14.2 44.2788 13.9706 44.1295 13.704C43.9908 13.4266 43.9215 13.1066 43.9215 12.744C43.9215 12.136 44.0762 11.6613 44.3855 11.32C44.7055 10.968 45.1002 10.7066 45.5695 10.536C46.0495 10.3653 46.5562 10.2586 47.0895 10.216C47.6335 10.1733 48.1295 10.152 48.5775 10.152H49.1055Z" fill="black"/>
<path d="M42.5067 9.01603C42.3254 8.7387 42.0694 8.50403 41.7387 8.31203C41.4187 8.12003 41.0507 8.02403 40.6347 8.02403C40.1974 8.01337 39.8027 8.0827 39.4507 8.23203C39.1094 8.38137 38.8161 8.58937 38.5707 8.85603C38.3254 9.1227 38.1387 9.4427 38.0107 9.81603C37.8827 10.1787 37.8187 10.5734 37.8187 11C37.8187 11.4267 37.8827 11.8267 38.0107 12.2C38.1387 12.5627 38.3254 12.8774 38.5707 13.144C38.8161 13.4107 39.1094 13.6187 39.4507 13.768C39.8027 13.9174 40.1974 13.9867 40.6347 13.976C41.0507 13.976 41.4187 13.88 41.7387 13.688C42.0694 13.496 42.3254 13.2614 42.5067 12.984L43.3707 13.64C42.9974 14.0774 42.5761 14.4027 42.1067 14.616C41.6374 14.8187 41.1467 14.9254 40.6347 14.936C40.0267 14.9467 39.4774 14.856 38.9867 14.664C38.4961 14.4614 38.0747 14.184 37.7227 13.832C37.3814 13.48 37.1201 13.064 36.9387 12.584C36.7574 12.0934 36.6667 11.5654 36.6667 11C36.6667 10.4347 36.7574 9.91203 36.9387 9.43203C37.1201 8.94137 37.3814 8.52003 37.7227 8.16803C38.0747 7.81603 38.4961 7.54403 38.9867 7.35203C39.4774 7.14937 40.0267 7.05337 40.6347 7.06403C41.1467 7.0747 41.6374 7.1867 42.1067 7.40003C42.5761 7.6027 42.9974 7.9227 43.3707 8.36003L42.5067 9.01603Z" fill="black"/>
<path d="M35.207 4.37591C35.207 4.59991 35.127 4.78658 34.967 4.93591C34.807 5.07458 34.631 5.14391 34.439 5.14391C34.247 5.14391 34.071 5.07458 33.911 4.93591C33.751 4.78658 33.671 4.59991 33.671 4.37591C33.671 4.15191 33.751 3.97058 33.911 3.83191C34.071 3.68258 34.247 3.60791 34.439 3.60791C34.631 3.60791 34.807 3.68258 34.967 3.83191C35.127 3.97058 35.207 4.15191 35.207 4.37591ZM34.967 14.7439H33.911V7.25591H34.967V14.7439Z" fill="black"/>
<path d="M31.5872 14.7439H30.5312V2.64795H31.5872V14.7439Z" fill="black"/>
<path d="M27.806 11C27.806 10.584 27.7367 10.1946 27.598 9.83196C27.47 9.4693 27.2833 9.15463 27.038 8.88796C26.7927 8.6213 26.494 8.4133 26.142 8.26396C25.8007 8.10396 25.4113 8.02396 24.974 8.02396C24.5367 8.02396 24.1367 8.10396 23.774 8.26396C23.4113 8.4133 23.0967 8.6213 22.83 8.88796C22.5633 9.15463 22.3553 9.4693 22.206 9.83196C22.0567 10.1946 21.982 10.584 21.982 11C21.982 11.416 22.0567 11.8053 22.206 12.168C22.3553 12.5306 22.5633 12.8453 22.83 13.112C23.0967 13.3786 23.4113 13.592 23.774 13.752C24.1367 13.9013 24.5367 13.976 24.974 13.976C25.4113 13.976 25.8007 13.9013 26.142 13.752C26.494 13.592 26.7927 13.3786 27.038 13.112C27.2833 12.8453 27.47 12.5306 27.598 12.168C27.7367 11.8053 27.806 11.416 27.806 11ZM20.974 7.25596H22.03V8.50397H22.062C22.2327 8.24797 22.4353 8.0293 22.67 7.84797C22.9047 7.66663 23.15 7.5173 23.406 7.39996C23.662 7.28263 23.9233 7.1973 24.19 7.14396C24.4673 7.09063 24.7287 7.06396 24.974 7.06396C25.5607 7.06396 26.094 7.1653 26.574 7.36796C27.0647 7.55996 27.486 7.83196 27.838 8.18396C28.19 8.53596 28.462 8.95196 28.654 9.43196C28.8567 9.91197 28.958 10.4346 28.958 11C28.958 11.5653 28.8567 12.088 28.654 12.568C28.462 13.048 28.19 13.464 27.838 13.816C27.486 14.168 27.0647 14.4453 26.574 14.648C26.094 14.84 25.5607 14.936 24.974 14.936C24.7287 14.936 24.4673 14.9093 24.19 14.856C23.9233 14.8026 23.662 14.7173 23.406 14.6C23.15 14.4826 22.9047 14.3333 22.67 14.152C22.4353 13.9706 22.2327 13.752 22.062 13.496H22.03V19.352H20.974V7.25596Z" fill="black"/>
<path d="M18.4887 11C18.4887 10.584 18.4194 10.1946 18.2807 9.83196C18.1527 9.4693 17.9661 9.15463 17.7207 8.88796C17.4754 8.6213 17.1767 8.4133 16.8247 8.26396C16.4834 8.10396 16.0941 8.02396 15.6567 8.02396C15.2194 8.02396 14.8194 8.10396 14.4567 8.26396C14.0941 8.4133 13.7794 8.6213 13.5127 8.88796C13.2461 9.15463 13.0381 9.4693 12.8887 9.83196C12.7394 10.1946 12.6647 10.584 12.6647 11C12.6647 11.416 12.7394 11.8053 12.8887 12.168C13.0381 12.5306 13.2461 12.8453 13.5127 13.112C13.7794 13.3786 14.0941 13.592 14.4567 13.752C14.8194 13.9013 15.2194 13.976 15.6567 13.976C16.0941 13.976 16.4834 13.9013 16.8247 13.752C17.1767 13.592 17.4754 13.3786 17.7207 13.112C17.9661 12.8453 18.1527 12.5306 18.2807 12.168C18.4194 11.8053 18.4887 11.416 18.4887 11ZM11.6567 7.25596H12.7127V8.50397H12.7447C12.9154 8.24797 13.1181 8.0293 13.3527 7.84797C13.5874 7.66663 13.8327 7.5173 14.0887 7.39996C14.3447 7.28263 14.6061 7.1973 14.8727 7.14396C15.1501 7.09063 15.4114 7.06396 15.6567 7.06396C16.2434 7.06396 16.7767 7.1653 17.2567 7.36796C17.7474 7.55996 18.1687 7.83196 18.5207 8.18396C18.8727 8.53596 19.1447 8.95196 19.3367 9.43196C19.5394 9.91197 19.6407 10.4346 19.6407 11C19.6407 11.5653 19.5394 12.088 19.3367 12.568C19.1447 13.048 18.8727 13.464 18.5207 13.816C18.1687 14.168 17.7474 14.4453 17.2567 14.648C16.7767 14.84 16.2434 14.936 15.6567 14.936C15.4114 14.936 15.1501 14.9093 14.8727 14.856C14.6061 14.8026 14.3447 14.7173 14.0887 14.6C13.8327 14.4826 13.5874 14.3333 13.3527 14.152C13.1181 13.9706 12.9154 13.752 12.7447 13.496H12.7127V19.352H11.6567V7.25596Z" fill="black"/>
<path d="M3.024 10.712H7.936L5.488 4.76002L3.024 10.712ZM1.344 14.744H0L4.928 3.41602H6.048L10.976 14.744H9.632L8.384 11.768H2.592L1.344 14.744Z" fill="black"/>
</svg>
